<?xml version="1.0" encoding="utf-8"?>
<!-- Generator: Adobe Illustrator 22.1.0, SVG Export Plug-In . SVG Version: 6.00 Build 0)  -->
<svg version="1.1" id="Capa_1" xmlns="http://www.w3.org/2000/svg" xmlns:xlink="http://www.w3.org/1999/xlink" width="64px" height="16px"
	 viewBox="0 0 64 16" style="enable-background:new 0 0 64 16;" xml:space="preserve">
<style type="text/css">
	.st0{fill:#FFFFFF;}
</style>
<g transform="translate(0, 0)">
	<path d="M8-20.1c2.2,0,4-1.8,4-4v-2c0-2.2-1.8-4-4-4s-4,1.8-4,4v2C4-21.9,5.8-20.1,8-20.1z M6-26.1c0-1.1,0.9-2,2-2s2,0.9,2,2v2
		c0,1.1-0.9,2-2,2s-2-0.9-2-2V-26.1z"/>
	<path d="M15.9-23c0.1-0.5-0.3-1-0.8-1.1c-0.5-0.1-1.1,0.3-1.1,0.8c-0.5,3-3,5.2-6,5.2s-5.5-2.2-5.9-5.1c-0.1-0.6-0.6-1-1.2-0.9
		C0.4-24,0-23.5,0.1-23c0.5,3.6,3.4,6.3,6.9,6.8v2.1h2v-2.1C12.5-16.6,15.4-19.4,15.9-23z"/>
</g>
<g transform="translate(16, 0)">
	<path d="M15-3.1H1c-0.6,0-1-0.4-1-1v-14c0-0.6,0.4-1,1-1h14c0.6,0,1,0.4,1,1v14C16-3.5,15.6-3.1,15-3.1z M2-5.1h12v-12H2V-5.1z"/>
	<path d="M6-15.1c0.6,0,1,0.4,1,1c0,0.6-0.4,1-1,1s-1-0.4-1-1C5-14.7,5.4-15.1,6-15.1z"/>
	<polygon points="3,-7.1 5,-11.1 7,-9.1 10,-13.1 13,-7.1 	"/>
</g>
<g transform="translate(32, 0)">
	<path d="M10-24.1H1c-0.6,0-1-0.4-1-1v-10c0-0.6,0.4-1,1-1h9c0.6,0,1,0.4,1,1v1.5l3.6-1.5c0.7-0.2,1.4,0.3,1.4,1v8
		c0,0.7-0.7,1.2-1.4,0.9L11-26.6v1.5C11-24.5,10.6-24.1,10-24.1z M2-26.1h7v-2c0-0.7,0.7-1.2,1.4-0.9l3.6,1.5v-5L10.4-31
		C9.7-30.9,9-31.4,9-32.1v-2H2V-26.1z"/>
</g>
<g transform="translate(48, 0)">
	<path d="M11-35.1h-1c-0.6,0-1,0.4-1,1c0,0.6,0.4,1,1,1h1c1.7,0,3,1.3,3,3c0,1.7-1.3,3-3,3h-1c-0.6,0-1,0.4-1,1s0.4,1,1,1h1
		c2.8,0,5-2.2,5-5S13.8-35.1,11-35.1z"/>
	<path d="M6-27.1H5c-1.7,0-3-1.3-3-3c0-1.7,1.3-3,3-3h1c0.6,0,1-0.4,1-1c0-0.6-0.4-1-1-1H5c-2.8,0-5,2.2-5,5s2.2,5,5,5h1
		c0.6,0,1-0.4,1-1S6.6-27.1,6-27.1z"/>
	<path d="M4-30.1c0,0.6,0.4,1,1,1h6c0.6,0,1-0.4,1-1s-0.4-1-1-1H5C4.4-31.1,4-30.7,4-30.1z"/>
</g>
<rect x="-51.3" y="-21.9" class="st0" width="16" height="16"/>
<rect x="-109.8" y="-22.1" class="st0" width="16" height="16"/>
<path d="M-94.2-11.7h-0.4v-2.7c0-0.3-0.1-0.6-0.4-0.8l-2.5-2.5c-0.2-0.2-0.5-0.4-0.8-0.4h-1.1v-1.2c0-0.7-0.5-1.2-1.2-1.2h-8
	c-0.7,0-1.2,0.5-1.2,1.2v8c0,0.7,0.5,1.2,1.2,1.2h0.4c0,1.3,1.1,2.4,2.4,2.4c1.3,0,2.4-1.1,2.4-2.4h3.2c0,1.3,1.1,2.4,2.4,2.4
	c1.3,0,2.4-1.1,2.4-2.4h1.2c0.2,0,0.4-0.2,0.4-0.4v-0.8C-93.8-11.5-94-11.7-94.2-11.7z M-105.8-8.9c-0.7,0-1.2-0.5-1.2-1.2
	c0-0.7,0.5-1.2,1.2-1.2s1.2,0.5,1.2,1.2C-104.6-9.4-105.1-8.9-105.8-8.9z M-102.2-15.1c0,0.1-0.1,0.2-0.2,0.2h-1.4v1.4
	c0,0.1-0.1,0.2-0.2,0.2h-1.2c-0.1,0-0.2-0.1-0.2-0.2v-1.4h-1.4c-0.1,0-0.2-0.1-0.2-0.2v-1.2c0-0.1,0.1-0.2,0.2-0.2h1.4v-1.4
	c0-0.1,0.1-0.2,0.2-0.2h1.2c0.1,0,0.2,0.1,0.2,0.2v1.4h1.4c0.1,0,0.2,0.1,0.2,0.2V-15.1z M-97.8-8.9c-0.7,0-1.2-0.5-1.2-1.2
	c0-0.7,0.5-1.2,1.2-1.2s1.2,0.5,1.2,1.2C-96.6-9.4-97.1-8.9-97.8-8.9z M-95.8-14.1h-3.6v-2.8h1.1l2.5,2.5V-14.1z"/>
<path class="st0" d="M31.6,10.4h-0.4V7.7c0-0.3-0.1-0.6-0.4-0.8l-2.5-2.5C28.1,4.1,27.8,4,27.5,4h-1.1V2.8c0-0.7-0.5-1.2-1.2-1.2h-8
	c-0.7,0-1.2,0.5-1.2,1.2v8c0,0.7,0.5,1.2,1.2,1.2h0.4c0,1.3,1.1,2.4,2.4,2.4s2.4-1.1,2.4-2.4h3.2c0,1.3,1.1,2.4,2.4,2.4
	s2.4-1.1,2.4-2.4h1.2c0.2,0,0.4-0.2,0.4-0.4v-0.8C32,10.6,31.8,10.4,31.6,10.4z M20,13.2c-0.7,0-1.2-0.5-1.2-1.2s0.5-1.2,1.2-1.2
	s1.2,0.5,1.2,1.2S20.7,13.2,20,13.2z M23.6,7c0,0.1-0.1,0.2-0.2,0.2H22v1.4c0,0.1-0.1,0.2-0.2,0.2h-1.2c-0.1,0-0.2-0.1-0.2-0.2V7.2
	H19c-0.1,0-0.2-0.1-0.2-0.2V5.8c0-0.1,0.1-0.2,0.2-0.2h1.4V4.2c0-0.1,0.1-0.2,0.2-0.2h1.2C21.9,4,22,4.1,22,4.2v1.4h1.4
	c0.1,0,0.2,0.1,0.2,0.2V7z M28,13.2c-0.7,0-1.2-0.5-1.2-1.2s0.5-1.2,1.2-1.2s1.2,0.5,1.2,1.2S28.7,13.2,28,13.2z M30,8h-3.6V5.2h1.1
	L30,7.7V8z"/>
<path class="st0" d="M40,0c-4.4,0-8,3.6-8,8s3.6,8,8,8s8-3.6,8-8S44.5,0,40,0z M40,3.1c1.6,0,2.8,1.3,2.8,2.8S41.6,8.8,40,8.8
	c-1.6,0-2.8-1.3-2.8-2.8S38.5,3.1,40,3.1z M40,14.2c-1.9,0-3.6-0.9-4.7-2.2c0.6-1.1,1.8-1.9,3.2-1.9c0.1,0,0.2,0,0.2,0
	c0.4,0.1,0.9,0.2,1.3,0.2c0.5,0,0.9-0.1,1.3-0.2c0.1,0,0.2,0,0.2,0c1.4,0,2.6,0.8,3.2,1.9C43.6,13.3,41.9,14.2,40,14.2z"/>
<path d="M-43.3-13.9c2.2,0,4-1.8,4-4s-1.8-4-4-4c-2.2,0-4,1.8-4,4S-45.5-13.9-43.3-13.9z M-47-8.6c0,0.4,0.3,0.8,0.8,0.8
	c0.4,0,0.8-0.3,0.8-0.8s-0.3-0.8-0.8-0.8C-46.7-9.4-47-9-47-8.6z M-40.3-12.9v1.5c1.1,0.2,2,1.2,2,2.4v1.3c0,0.2-0.2,0.4-0.4,0.5
	l-1,0.2c-0.1,0-0.3-0.1-0.3-0.2l-0.1-0.5c0-0.1,0.1-0.3,0.2-0.3l0.6-0.1v-0.9c0-2-3-2-3,0.1V-8l0.6,0.1c0.1,0,0.2,0.2,0.2,0.3
	l-0.1,0.5c0,0.1-0.2,0.2-0.3,0.2l-1-0.1c-0.2,0-0.4-0.2-0.4-0.5v-1.4c0-1.2,0.9-2.2,2-2.4v-1.4c-0.1,0-0.1,0-0.2,0.1
	c-0.6,0.2-1.2,0.3-1.8,0.3c-0.6,0-1.2-0.1-1.8-0.3c-0.2-0.1-0.5-0.1-0.7-0.2v2.6c0.7,0.2,1.3,0.9,1.3,1.7c0,1-0.8,1.8-1.8,1.8
	c-1,0-1.8-0.8-1.8-1.8c0-0.8,0.5-1.5,1.3-1.7v-2.5c-2,0.3-3.5,2-3.5,4.1v1.4c0,0.8,0.6,1.4,1.4,1.4h11.2c0.8,0,1.4-0.6,1.4-1.4v-1.4
	C-36.3-10.9-38.1-12.7-40.3-12.9L-40.3-12.9z"/>
<path class="st0" d="M8,8c2.2,0,4-1.8,4-4s-1.8-4-4-4S4,1.8,4,4S5.8,8,8,8z M4.3,13.3C4.3,13.7,4.6,14,5,14s0.8-0.3,0.8-0.8
	S5.4,12.5,5,12.5S4.3,12.8,4.3,13.3z M11,9v1.5c1.1,0.2,2,1.2,2,2.4v1.3c0,0.2-0.2,0.4-0.4,0.5l-1,0.2c-0.1,0-0.3-0.1-0.3-0.2
	l-0.1-0.5c0-0.1,0.1-0.3,0.2-0.3l0.6-0.1V13c0-2-3-2-3,0.1v0.8L9.6,14c0.1,0,0.2,0.2,0.2,0.3l-0.1,0.5c0,0.1-0.2,0.2-0.3,0.2l-1-0.1
	c-0.2,0-0.4-0.2-0.4-0.5V13c0-1.2,0.9-2.2,2-2.4V9.1c-0.1,0-0.1,0-0.2,0.1C9.2,9.4,8.6,9.5,8,9.5c-0.6,0-1.2-0.1-1.8-0.3
	C6,9.1,5.7,9.1,5.5,9v2.6c0.7,0.2,1.3,0.9,1.3,1.7C6.8,14.2,6,15,5,15s-1.8-0.8-1.8-1.8c0-0.8,0.5-1.5,1.3-1.7V9.1
	c-2,0.3-3.5,2-3.5,4.1v1.4C1,15.4,1.6,16,2.4,16h11.2c0.8,0,1.4-0.6,1.4-1.4v-1.4C15,11,13.2,9.1,11,9L11,9z"/>
<g>
	<path class="st0" d="M56.5,0.2c-2.4,0-4.3,1.9-4.3,4.3c0,2.8,0,11.2,0,11.2s5.4-6.1,7.3-8.1c0.8-0.8,1.3-1.9,1.3-3.1
		C60.8,2.2,58.9,0.2,56.5,0.2z M57.6,5.8c-0.8,0.8-3,3.3-3,3.3s0-3.5,0-4.6c0-1,0.8-1.8,1.8-1.8c1,0,1.8,0.8,1.8,1.8
		C58.2,5,58,5.5,57.6,5.8z"/>
</g>
</svg>
